<?xml version="1.0" encoding="iso-8859-1"?>
<!-- Generator: Adobe Illustrator 19.0.0, SVG Export Plug-In . SVG Version: 6.00 Build 0)  -->
<svg xmlns="http://www.w3.org/2000/svg" xmlns:xlink="http://www.w3.org/1999/xlink" version="1.1" id="Layer_1" x="0px" y="0px" viewBox="0 0 512 512" style="enable-background:new 0 0 512 512;" xml:space="preserve" width="512px" height="512px">
<g transform="translate(1 1)">
	<g>
		<g>
			<path d="M255-1C114.2-1-1,114.2-1,255s115.2,256,256,256s256-115.2,256-256S395.8-1,255-1z M255,493.933     c-131.413,0-238.933-107.52-238.933-238.933S123.587,16.067,255,16.067S493.933,123.587,493.933,255S386.413,493.933,255,493.933     z" fill="#91DC5A"/>
			<path d="M255,50.2C142.36,50.2,50.2,142.36,50.2,255S142.36,459.8,255,459.8S459.8,367.64,459.8,255S367.64,50.2,255,50.2z      M246.467,331.326V442.53c-27.813-1.26-54.098-8.644-77.533-20.832l55.498-96.153     C231.304,328.499,238.704,330.481,246.467,331.326z M263.533,331.326c7.584-0.825,14.826-2.727,21.564-5.57l55.528,96.175     c-23.323,12.051-49.454,19.346-77.092,20.598V331.326z M255,314.733c-33.28,0-59.733-26.453-59.733-59.733     c0-33.28,26.453-59.733,59.733-59.733c33.28,0,59.733,26.453,59.733,59.733C314.733,288.28,288.28,314.733,255,314.733z      M178.674,246.467H67.47c1.255-27.69,8.576-53.867,20.667-77.223l96.167,55.523C181.43,231.544,179.505,238.831,178.674,246.467z      M178.674,263.533c0.827,7.605,2.739,14.866,5.594,21.619L88.09,340.665c-12.063-23.333-19.366-49.478-20.62-77.132H178.674z      M246.467,178.674c-8.229,0.895-16.046,3.078-23.263,6.333l4.882-2.819l-55.323-95.82c22.455-11.033,47.396-17.706,73.704-18.898     V178.674z M263.533,178.674V67.47c26.185,1.187,51.015,7.8,73.388,18.74l-55.452,96.074l2.87,1.657     C277.816,181.271,270.836,179.469,263.533,178.674z M331.326,263.533H442.53c-1.26,27.802-8.638,54.078-20.817,77.506     l-96.149-55.513C328.508,278.666,330.483,271.28,331.326,263.533z M331.326,246.467c-0.843-7.747-2.818-15.133-5.762-21.992     l96.156-55.5c12.175,23.424,19.55,49.695,20.81,77.492H331.326z M413.175,154.201l-96.059,55.444     c-5.583-7.662-12.558-14.227-20.563-19.352l55.351-95.898C376.595,109.387,397.602,129.905,413.175,154.201z M157.795,94.576     l55.369,95.899c-7.977,5.156-14.916,11.749-20.465,19.433L96.663,154.46C112.189,130.15,133.146,109.604,157.795,94.576z      M96.609,355.454l96.039-55.432c4.718,6.548,10.44,12.311,16.959,17.067l-55.445,96.062     C131.056,398.333,111.373,378.597,96.609,355.454z M355.415,413.415l-55.443-96.028c6.581-4.734,12.371-10.482,17.144-17.032     l96.051,55.457C398.339,378.941,378.584,398.643,355.415,413.415z" fill="#91DC5A"/>
			<path d="M255,220.867c-18.773,0-34.133,15.36-34.133,34.133c0,18.773,15.36,34.133,34.133,34.133     c18.773,0,34.133-15.36,34.133-34.133C289.133,236.227,273.773,220.867,255,220.867z M255,272.067     c-9.387,0-17.067-7.68-17.067-17.067s7.68-17.067,17.067-17.067s17.067,7.68,17.067,17.067S264.387,272.067,255,272.067z" fill="#91DC5A"/>
		</g>
	</g>
</g>
<g>
</g>
<g>
</g>
<g>
</g>
<g>
</g>
<g>
</g>
<g>
</g>
<g>
</g>
<g>
</g>
<g>
</g>
<g>
</g>
<g>
</g>
<g>
</g>
<g>
</g>
<g>
</g>
<g>
</g>
</svg>
